<svg width="46" height="46" viewBox="0 0 46 46" fill="none" xmlns="http://www.w3.org/2000/svg">
<path d="M7.1875 0.5H38.8125C42.5059 0.5 45.5 3.4941 45.5 7.1875V38.8125C45.5 42.5059 42.5059 45.5 38.8125 45.5H7.1875C3.4941 45.5 0.5 42.5059 0.5 38.8125V7.1875C0.5 3.4941 3.4941 0.5 7.1875 0.5Z" stroke="#4D5064"/>
<path d="M12.6499 21.61C19.0923 18.7875 23.3883 16.9268 25.5378 16.0278C31.675 13.4609 32.9503 13.015 33.7815 13.0001C33.9643 12.9971 34.3731 13.0426 34.6379 13.2587C34.8614 13.4411 34.9229 13.6875 34.9524 13.8605C34.9818 14.0334 35.0185 14.4274 34.9893 14.7353C34.6567 18.2491 33.2177 26.7763 32.4856 30.7118C32.1758 32.3771 31.5658 32.9354 30.9753 32.9901C29.6919 33.1088 28.7174 32.1373 27.4744 31.3179C25.5294 30.0359 24.4305 29.2378 22.5425 27.9867C20.3606 26.5409 21.7751 25.7462 23.0185 24.4476C23.344 24.1077 28.9985 18.9359 29.1079 18.4668C29.1216 18.4081 29.1343 18.1894 29.0051 18.0739C28.8759 17.9584 28.6851 17.9979 28.5475 18.0293C28.3524 18.0738 25.2452 20.139 19.2258 24.2248C18.3439 24.8338 17.545 25.1305 16.8292 25.1149C16.0402 25.0978 14.5223 24.6663 13.394 24.2975C12.01 23.8451 10.91 23.606 11.0058 22.8377C11.0557 22.4375 11.6037 22.0283 12.6499 21.61Z" fill="#FAFAFA"/>
</svg>
