<svg width="46" height="46" viewBox="0 0 46 46" fill="none" xmlns="http://www.w3.org/2000/svg">
<path d="M7.1875 0.5H38.8125C42.5059 0.5 45.5 3.4941 45.5 7.1875V38.8125C45.5 42.5059 42.5059 45.5 38.8125 45.5H7.1875C3.4941 45.5 0.5 42.5059 0.5 38.8125V7.1875C0.5 3.4941 3.4941 0.5 7.1875 0.5Z" stroke="#4D5064"/>
<path d="M24.0718 30.2C15.8719 30.2 11.1949 24.4943 11 15H15.1074C15.2423 21.9686 18.2704 24.9203 20.6689 25.5289V15H24.5366V21.01C26.9051 20.7514 29.3933 18.0126 30.2328 15H34.1004C33.4558 18.7125 30.7575 21.4513 28.8387 22.5772C30.7575 23.4901 33.8307 25.8789 35 30.2H30.7425C29.8281 27.3091 27.5497 25.0725 24.5366 24.7682V30.2H24.0718Z" fill="#FAFAFA"/>
</svg>
