<svg width="46" height="46" viewBox="0 0 46 46" fill="none" xmlns="http://www.w3.org/2000/svg">
<path d="M7.1875 0.5H38.8125C42.5059 0.5 45.5 3.4941 45.5 7.1875V38.8125C45.5 42.5059 42.5059 45.5 38.8125 45.5H7.1875C3.4941 45.5 0.5 42.5059 0.5 38.8125V7.1875C0.5 3.4941 3.4941 0.5 7.1875 0.5Z" stroke="#4D5064"/>
<path d="M33.925 17.3937C33.6375 16.3875 32.9188 15.6687 31.9125 15.3812C30.1875 14.95 22.8562 14.95 22.8562 14.95C22.8562 14.95 15.6688 14.95 13.8 15.3812C12.7938 15.6687 12.075 16.3875 11.7875 17.3937C11.5 19.2625 11.5 23 11.5 23C11.5 23 11.5 26.7375 11.9313 28.6062C12.2188 29.6125 12.9375 30.3312 13.9437 30.6187C15.6687 31.05 23 31.05 23 31.05C23 31.05 30.1875 31.05 32.0562 30.6187C33.0625 30.3312 33.7813 29.6125 34.0688 28.6062C34.5 26.7375 34.5 23 34.5 23C34.5 23 34.5 19.2625 33.925 17.3937ZM20.7 26.45V19.55L26.7375 23L20.7 26.45Z" fill="#FAFAFA"/>
</svg>
